<svg width="32" height="32" viewBox="0 0 32 32" fill="none" xmlns="http://www.w3.org/2000/svg">
<g clip-path="url(#clip0_363_2)">
<rect width="32" height="32" rx="1" fill="white"/>
<path d="M0 4.17241H3.0939L3.84799 4.95448V20.4872L3.08685 21.2766H0.958473V23H0V4.17241ZM2.65694 20.451L2.90361 20.1976V5.25138L2.65694 4.99793H0.958473V20.451H2.65694Z" fill="black"/>
<path d="M4.48569 22.1672V5.00517L5.29616 4.17241H7.8333L8.64377 5.00517V22.1672L7.8333 23H5.29616L4.48569 22.1672ZM7.32587 22.16L7.6853 21.7907V5.38172L7.32587 5.01241H5.80359L5.44416 5.38172V21.7907L5.80359 22.16H7.32587Z" fill="black"/>
<path d="M13.367 21.32V23H12.4086V21.5445L11.9857 21.0593H10.4493V23H9.49086V4.17241H12.5848L13.3388 4.95448V20.2483L12.8596 20.7479L13.367 21.32ZM10.4493 20.2483H12.1478L12.3945 19.9948V5.25138L12.1478 4.99793H10.4493V20.2483Z" fill="black"/>
<path d="M15.2639 2.83276H0V2L32 2V2.83276H16.2224V23H15.2639V2.83276Z" fill="black"/>
<path d="M18.2591 4.17241H24.4421V5.00517H19.2175V20.1686H21.4164V21.0014H19.2175V23H18.2591V4.17241Z" fill="black"/>
<path d="M19.7154 18.3076V6.93862L20.5259 6.10586H23.3455L24.156 6.93862V18.3076L23.3455 19.1403H20.5259L19.7154 18.3076ZM22.8381 18.3003L23.1975 17.931V7.31517L22.8381 6.94586H21.0333L20.6739 7.31517V17.931L21.0333 18.3003H22.8381Z" fill="black"/>
<path d="M24.4421 4.17241H25.4006V22.1672H32V23H24.4421V4.17241Z" fill="black"/>
<path d="M25.9999 4.17241H26.9584V21.2041H25.9999V4.17241Z" fill="black"/>
<path d="M27.8419 20.3714V5.00517L28.6524 4.17241H31.1895L32 5.00517V20.3714L31.1895 21.2041H28.6524L27.8419 20.3714ZM30.6821 20.3641L31.0415 19.9948V5.38172L30.6821 5.01241H29.1598L28.8004 5.38172V19.9948L29.1598 20.3641H30.6821Z" fill="black"/>
<path d="M0.191758 25.8H2.82576L3.46776 26.448V27.918L2.81976 28.572H1.00776V30H0.191758V25.8ZM2.45376 27.888L2.66376 27.678V26.694L2.45376 26.484H1.00776V27.888H2.45376ZM4.01066 29.31V26.49L4.70066 25.8H6.86066L7.55066 26.49V29.31L6.86066 30H4.70066L4.01066 29.31ZM6.42866 29.304L6.73466 28.998V26.802L6.42866 26.496H5.13266L4.82666 26.802V28.998L5.13266 29.304H6.42866ZM11.5718 28.608V30H10.7558V28.794L10.3958 28.392H9.08784V30H8.27184V25.8H10.9058L11.5478 26.448V27.72L11.1398 28.134L11.5718 28.608ZM9.08784 27.72H10.5338L10.7438 27.51V26.694L10.5338 26.484H9.08784V27.72ZM13.1868 26.49H11.9328V25.8H15.2568V26.49H14.0028V30H13.1868V26.49ZM15.7367 25.8H18.7127V26.49H16.5527V27.654H18.4247V28.344H16.5527V30H15.7367V25.8ZM19.1044 29.31V26.49L19.7944 25.8H21.9544L22.6444 26.49V29.31L21.9544 30H19.7944L19.1044 29.31ZM21.5224 29.304L21.8284 28.998V26.802L21.5224 26.496H20.2264L19.9204 26.802V28.998L20.2264 29.304H21.5224ZM23.3656 25.8H24.1816V29.31H26.2816V30H23.3656V25.8ZM26.7589 25.8H27.5749V30H26.7589V25.8ZM28.3271 29.31V26.49L29.0171 25.8H31.1771L31.8671 26.49V29.31L31.1771 30H29.0171L28.3271 29.31ZM30.7451 29.304L31.0511 28.998V26.802L30.7451 26.496H29.4491L29.1431 26.802V28.998L29.4491 29.304H30.7451Z" fill="black"/>
</g>
<defs>
<clipPath id="clip0_363_2">
<rect width="32" height="32" rx="1" fill="white"/>
</clipPath>
</defs>
</svg>
